# xmcd
#
# Track frame offsets:
#	150
#	12124
#	24202
#	43229
#	54955
#	70199
#	85366
#	98348
#	111926
#	129943
#	141426
#	152478
#
# Disc length: 2229 seconds
#
# Revision: 0
# Processed by: cddbd v1.5.2PL0 Copyright (c) Steve Scherf et al.
# Submitted via: dBpowerAMP V4.0
#
DISCID=8e08b30c
DTITLE=Helge, Anne og Inge - Great Wings
DYEAR=2009
DGENRE=Country
TTITLE0=No letters (Helge Vikan)
TTITLE1=Footsteps the Sand (Helge Vikan)
TTITLE2=Great Wings (Helge Vikan)
TTITLE3=I can feel the rain (Helge Vikan)
TTITLE4=If you could fly (Helge Vikan)
TTITLE5=Morning Blues (Helge Vikan)
TTITLE6=Love I all I have (Anne Gravvold Vikan)
TTITLE7=Walking with no fear (Anne Gravvold Vikan)
TTITLE8=Lokking for a heaven (Inge Stian Fjærvik)
TTITLE9=Sitting by the fireplace (Inge Stian Fjærvik)
TTITLE10=I can feel the sunshine (Inge Stian Fjærvik)
TTITLE11=Pale Moon (Inge Stian Fjærvik)
EXTD=Tekst og melodi: Helge Vikan
EXTT0=
EXTT1=
EXTT2=
EXTT3=
EXTT4=
EXTT5=
EXTT6=
EXTT7=
EXTT8=
EXTT9=
EXTT10=
EXTT11=
PLAYORDER=
